<?xml version="1.0" encoding="UTF-8" standalone="no"?><!DOCTYPE svg PUBLIC "-//W3C//DTD SVG 1.1//EN" "http://www.w3.org/Graphics/SVG/1.1/DTD/svg11.dtd"><svg width="100%" height="100%" viewBox="0 0 2250 2250" version="1.1" xmlns="http://www.w3.org/2000/svg" xmlns:xlink="http://www.w3.org/1999/xlink" xml:space="preserve" xmlns:serif="http://www.serif.com/" style="fill-rule:evenodd;clip-rule:evenodd;stroke-linecap:round;stroke-linejoin:round;stroke-miterlimit:1.5;"><g id="invert"><g id="dark-mode" serif:id="dark mode"><g><path d="M499.006,1934.35c9.011,11.199 18.713,22.023 29.105,32.415c156.278,156.278 410.033,156.278 566.311,0c156.277,-156.277 156.277,-410.032 -0,-566.31c-10.393,-10.392 -21.216,-20.094 -32.416,-29.106l-563,563.001Z" style="fill:#fef9ec;stroke:#fef9ec;stroke-width:55.77px;"/><path d="M1064.73,1368.62c9.433,10.851 19.339,21.48 29.691,31.831c240.728,240.729 631.61,240.729 872.338,0c240.729,-240.728 240.729,-631.61 0,-872.339c-10.351,-10.351 -20.98,-20.257 -31.83,-29.69l-870.199,870.198Z" style="fill:none;stroke:#fef9ec;stroke-width:55.77px;"/></g><g><path d="M1750.99,315.655c-9.011,-11.199 -18.713,-22.023 -29.105,-32.415c-156.278,-156.278 -410.033,-156.278 -566.311,-0c-156.277,156.277 -156.277,410.032 0,566.31c10.393,10.392 21.216,20.094 32.416,29.106l563,-563.001Z" style="fill:#fef9ec;stroke:#fef9ec;stroke-width:55.77px;"/><path d="M1185.27,881.381c-9.433,-10.851 -19.339,-21.48 -29.691,-31.831c-240.728,-240.729 -631.61,-240.729 -872.338,-0c-240.729,240.728 -240.729,631.61 -0,872.339c10.351,10.351 20.98,20.257 31.83,29.69l870.199,-870.198Z" style="fill:none;stroke:#fef9ec;stroke-width:55.77px;"/></g></g></g></svg>