<?xml version="1.0" encoding="UTF-8" standalone="no"?><!DOCTYPE svg PUBLIC "-//W3C//DTD SVG 1.1//EN" "http://www.w3.org/Graphics/SVG/1.1/DTD/svg11.dtd"><svg width="100%" height="100%" viewBox="0 0 24 24" version="1.1" xmlns="http://www.w3.org/2000/svg" xmlns:xlink="http://www.w3.org/1999/xlink" xml:space="preserve" xmlns:serif="http://www.serif.com/" style="fill-rule:evenodd;clip-rule:evenodd;stroke-linejoin:round;stroke-miterlimit:2;"><path d="M16,7c0,-0.552 -0.448,-1 -1,-1l-11,0c-0.552,0 -1,0.448 -1,1c0,0.552 0.448,1 1,1l11,0c0.552,0 1,-0.448 1,-1Z" style="fill:#fef9ec;"/><path d="M13,12c0,-0.552 -0.448,-1 -1,-1l-8,0c-0.552,0 -1,0.448 -1,1c0,0.552 0.448,1 1,1l8,0c0.552,0 1,-0.448 1,-1Z" style="fill:#fef9ec;"/><path d="M16,17c0,-0.552 -0.448,-1 -1,-1l-11,0c-0.552,0 -1,0.448 -1,1c0,0.552 0.448,1 1,1l11,0c0.552,0 1,-0.448 1,-1Z" style="fill:#fef9ec;"/><path d="M14.582,12l4.309,4.309c0.391,0.391 1.026,0.391 1.418,-0c0.391,-0.392 0.391,-1.027 -0,-1.418l-2.894,-2.895l2.896,-2.896c0.39,-0.39 0.39,-1.024 -0,-1.414c-0.391,-0.391 -1.025,-0.391 -1.415,-0l-4.314,4.314Z" style="fill:#fef9ec;"/></svg>